{"glyphs":{"0":{"ha":595,"x_min":0,"x_max":0,"o":"m 347 149 l 248 149 l 248 298 l 347 397 z m 248 446 l 248 645 l 347 645 l 347 546 z m 198 0 l 397 0 b 502 43 438 0 473 14 b 546 149 531 72 546 107 l 546 645 b 502 750 546 686 531 721 b 397 794 473 779 438 794 l 198 794 b 93 750 157 794 122 779 b 50 645 64 721 50 686 l 50 149 b 93 43 50 107 64 72 b 198 0 122 14 157 0 z "},"1":{"ha":595,"x_min":0,"x_max":0,"o":"m 99 0 l 496 0 l 496 149 l 397 149 l 397 794 l 248 794 l 99 645 l 99 595 l 198 595 l 198 149 l 99 149 z "},"2":{"ha":595,"x_min":0,"x_max":0,"o":"m 50 0 l 546 0 l 546 149 l 248 149 l 248 248 b 263 283 248 261 253 273 b 298 298 273 293 284 298 l 397 298 b 502 341 438 298 473 312 b 546 446 531 370 546 405 l 546 645 b 502 750 546 686 531 721 b 397 794 473 779 438 794 l 198 794 b 93 750 157 794 122 779 b 50 645 64 721 50 686 l 50 546 l 248 546 l 248 645 l 347 645 l 347 496 b 332 461 347 483 342 471 b 298 446 323 451 311 446 l 248 446 b 108 388 193 446 146 427 b 50 248 69 350 50 303 z "},"3":{"ha":595,"x_min":0,"x_max":0,"o":"m 446 446 b 516 476 473 446 497 456 b 546 546 536 496 546 519 l 546 645 b 502 750 546 686 531 721 b 397 794 473 779 438 794 l 198 794 b 93 750 157 794 122 779 b 50 645 64 721 50 686 l 50 546 l 248 546 l 248 645 l 347 645 l 347 496 l 248 496 l 248 347 l 347 347 l 347 149 l 248 149 l 248 248 l 50 248 l 50 149 b 93 43 50 107 64 72 b 198 0 122 14 157 0 l 397 0 b 502 43 438 0 473 14 b 546 149 531 72 546 107 l 546 347 b 516 417 546 374 536 397 b 446 446 497 437 473 446 z "},"4":{"ha":595,"x_min":0,"x_max":0,"o":"m 322 347 l 223 347 l 322 546 z m 322 0 l 521 0 l 521 198 l 546 198 l 546 347 l 521 347 l 521 794 l 273 794 l 50 347 l 50 198 l 322 198 z "},"5":{"ha":595,"x_min":0,"x_max":0,"o":"m 198 0 l 397 0 b 502 43 438 0 473 14 b 546 149 531 72 546 107 l 546 397 b 502 502 546 438 531 473 b 397 546 473 531 438 546 l 248 546 l 248 645 l 546 645 l 546 794 l 50 794 l 50 397 l 347 397 l 347 149 l 248 149 l 248 248 l 50 248 l 50 149 b 93 43 50 107 64 72 b 198 0 122 14 157 0 z "},"6":{"ha":595,"x_min":0,"x_max":0,"o":"m 347 149 l 248 149 l 248 347 l 347 347 z m 198 0 l 397 0 b 502 43 438 0 473 14 b 546 149 531 72 546 107 l 546 347 b 502 453 546 389 531 424 b 397 496 473 482 438 496 l 248 496 l 248 645 l 347 645 l 347 546 l 546 546 l 546 645 b 502 750 546 686 531 721 b 397 794 473 779 438 794 l 198 794 b 93 750 157 794 122 779 b 50 645 64 721 50 686 l 50 149 b 93 43 50 107 64 72 b 198 0 122 14 157 0 z "},"7":{"ha":595,"x_min":0,"x_max":0,"o":"m 186 0 l 384 0 l 546 645 l 546 794 l 50 794 l 50 645 l 347 645 z "},"8":{"ha":595,"x_min":0,"x_max":0,"o":"m 198 0 l 397 0 b 502 43 438 0 473 14 b 546 149 531 72 546 107 l 546 347 b 516 417 546 374 536 397 b 446 446 497 437 473 446 b 516 476 473 446 497 456 b 546 546 536 496 546 519 l 546 645 b 502 750 546 686 531 721 b 397 794 473 779 438 794 l 198 794 b 93 750 157 794 122 779 b 50 645 64 721 50 686 l 50 546 b 79 476 50 519 59 496 b 149 446 99 456 122 446 b 79 417 122 446 99 437 b 50 347 59 397 50 374 l 50 149 b 93 43 50 107 64 72 b 198 0 122 14 157 0 z m 347 496 l 248 496 l 248 645 l 347 645 z m 347 149 l 248 149 l 248 347 l 347 347 z "},"9":{"ha":595,"x_min":0,"x_max":0,"o":"m 347 446 l 248 446 l 248 645 l 347 645 z m 198 0 l 397 0 b 502 43 438 0 473 14 b 546 149 531 72 546 107 l 546 645 b 502 750 546 686 531 721 b 397 794 473 779 438 794 l 198 794 b 93 750 157 794 122 779 b 50 645 64 721 50 686 l 50 446 b 93 341 50 405 64 370 b 198 298 122 312 157 298 l 347 298 l 347 149 l 248 149 l 248 248 l 50 248 l 50 149 b 93 43 50 107 64 72 b 198 0 122 14 157 0 z "}," ":{"ha":298,"x_min":0,"x_max":0,"o":""},"!":{"ha":298,"x_min":0,"x_max":0,"o":"m 50 0 l 248 0 l 248 149 l 50 149 z m 87 248 l 211 248 l 248 397 l 248 794 l 50 794 l 50 397 z "},"\"":{"ha":546,"x_min":0,"x_max":0,"o":"m 87 446 l 211 446 l 248 595 l 248 794 l 50 794 l 50 595 z m 335 446 l 459 446 l 496 595 l 496 794 l 298 794 l 298 595 z "},"#":{"ha":595,"x_min":0,"x_max":0,"o":"m 347 298 l 248 298 l 248 496 l 347 496 z m 99 0 l 248 0 l 248 149 l 347 149 l 347 0 l 496 0 l 496 149 l 546 149 l 546 298 l 496 298 l 496 496 l 546 496 l 546 645 l 496 645 l 496 794 l 347 794 l 347 645 l 248 645 l 248 794 l 99 794 l 99 645 l 50 645 l 50 496 l 99 496 l 99 298 l 50 298 l 50 149 l 99 149 z "},"$":{"ha":595,"x_min":0,"x_max":0,"o":"m 248 0 l 347 0 l 347 50 l 397 50 b 502 93 438 50 473 64 b 546 198 531 122 546 157 l 546 397 b 516 467 546 424 536 447 b 446 496 497 486 473 496 l 248 496 l 248 595 l 347 595 l 347 546 l 546 546 l 546 595 b 502 701 546 637 531 672 b 397 744 473 730 438 744 l 347 744 l 347 794 l 248 794 l 248 744 l 198 744 b 93 701 157 744 122 730 b 50 595 64 672 50 637 l 50 446 b 79 377 50 420 59 396 b 149 347 99 357 122 347 l 347 347 l 347 198 l 248 198 l 248 248 l 50 248 l 50 198 b 93 93 50 157 64 122 b 198 50 122 64 157 50 l 248 50 z "},"%":{"ha":1042,"x_min":0,"x_max":0,"o":"m 843 149 l 744 149 l 744 248 l 843 248 z m 694 0 l 893 0 b 963 29 920 0 943 10 b 992 99 982 49 992 72 l 992 298 b 963 367 992 324 982 348 b 893 397 943 387 920 397 l 694 397 b 625 367 668 397 644 387 b 595 298 605 348 595 324 l 595 99 b 625 29 595 72 605 49 b 694 0 644 10 668 0 z m 298 546 l 198 546 l 198 645 l 298 645 z m 149 397 l 347 397 b 417 426 374 397 397 407 b 446 496 437 446 446 469 l 446 694 b 417 764 446 721 437 745 b 347 794 397 784 374 794 l 149 794 b 79 764 122 794 99 784 b 50 694 59 745 50 721 l 50 496 b 79 426 50 469 59 446 b 149 397 99 407 122 397 z m 223 0 l 422 0 l 818 794 l 620 794 z "},"&":{"ha":645,"x_min":0,"x_max":0,"o":"m 198 0 l 347 0 l 397 50 l 446 0 l 595 0 l 595 149 l 546 149 l 546 347 l 595 347 l 595 496 l 248 496 l 248 645 l 347 645 l 347 546 l 546 546 l 546 645 b 502 750 546 686 531 721 b 397 794 473 779 438 794 l 198 794 b 93 750 157 794 122 779 b 50 645 64 721 50 686 l 50 546 b 79 476 50 519 59 496 b 149 446 99 456 122 446 b 79 417 122 446 99 437 b 50 347 59 397 50 374 l 50 149 b 93 43 50 107 64 72 b 198 0 122 14 157 0 z m 347 149 l 248 149 l 248 347 l 347 347 z "},"'":{"ha":298,"x_min":0,"x_max":0,"o":"m 87 446 l 211 446 l 248 595 l 248 794 l 50 794 l 50 595 z "},"(":{"ha":347,"x_min":0,"x_max":0,"o":"m 149 -198 l 298 -198 l 298 -50 l 198 -50 l 198 645 l 298 645 l 298 794 l 149 794 b 79 764 122 794 99 784 b 50 694 59 745 50 721 l 50 -99 b 79 -169 50 -126 59 -149 b 149 -198 99 -189 122 -198 z "},")":{"ha":347,"x_min":0,"x_max":0,"o":"m 50 -198 l 198 -198 b 268 -169 225 -198 249 -189 b 298 -99 288 -149 298 -126 l 298 694 b 268 764 298 721 288 745 b 198 794 249 784 225 794 l 50 794 l 50 645 l 149 645 l 149 -50 l 50 -50 z "},"*":{"ha":546,"x_min":0,"x_max":0,"o":"m 198 248 l 347 248 l 347 397 l 496 322 l 496 471 l 397 521 l 496 570 l 496 719 l 347 645 l 347 794 l 198 794 l 198 645 l 50 719 l 50 570 l 149 521 l 50 471 l 50 322 l 198 397 z "},"+":{"ha":645,"x_min":0,"x_max":0,"o":"m 248 50 l 397 50 l 397 248 l 595 248 l 595 397 l 397 397 l 397 595 l 248 595 l 248 397 l 50 397 l 50 248 l 248 248 z "},",":{"ha":298,"x_min":0,"x_max":0,"o":"m 50 -149 l 149 -149 l 248 -50 l 248 198 l 50 198 l 50 0 l 99 0 l 50 -99 z "},"-":{"ha":446,"x_min":0,"x_max":0,"o":"m 50 248 l 397 248 l 397 397 l 50 397 z "},".":{"ha":298,"x_min":0,"x_max":0,"o":"m 50 0 l 248 0 l 248 198 l 50 198 z "},"/":{"ha":645,"x_min":0,"x_max":0,"o":"m 25 0 l 223 0 l 620 794 l 422 794 z "},":":{"ha":298,"x_min":0,"x_max":0,"o":"m 50 0 l 248 0 l 248 198 l 50 198 z m 50 397 l 248 397 l 248 595 l 50 595 z "},";":{"ha":298,"x_min":0,"x_max":0,"o":"m 50 -149 l 149 -149 l 248 -50 l 248 198 l 50 198 l 50 0 l 99 0 l 50 -99 z m 50 397 l 248 397 l 248 595 l 50 595 z "},"<":{"ha":496,"x_min":0,"x_max":0,"o":"m 397 50 l 446 50 l 446 198 l 248 298 l 446 397 l 446 546 l 397 546 l 50 372 l 50 223 z "},"=":{"ha":496,"x_min":0,"x_max":0,"o":"m 50 99 l 446 99 l 446 248 l 50 248 z m 50 347 l 446 347 l 446 496 l 50 496 z "},">":{"ha":496,"x_min":0,"x_max":0,"o":"m 50 50 l 99 50 l 446 223 l 446 372 l 99 546 l 50 546 l 50 397 l 248 298 l 50 198 z "},"?":{"ha":595,"x_min":0,"x_max":0,"o":"m 198 0 l 397 0 l 397 149 l 198 149 z m 198 198 l 397 198 l 397 248 l 546 546 l 546 645 b 502 750 546 686 531 721 b 397 794 473 779 438 794 l 198 794 b 93 750 157 794 122 779 b 50 645 64 721 50 686 l 50 546 l 248 546 l 248 645 l 347 645 l 347 546 l 198 248 z "},"@":{"ha":992,"x_min":0,"x_max":0,"o":"m 546 149 l 446 149 l 446 248 l 546 248 z m 198 -198 l 942 -198 l 942 -50 l 248 -50 b 213 -35 235 -50 223 -45 b 198 0 203 -25 198 -13 l 198 595 b 213 630 198 609 203 620 b 248 645 223 640 235 645 l 744 645 b 779 630 757 645 769 640 b 794 595 789 620 794 609 l 794 149 l 744 149 l 744 496 b 715 566 744 523 734 546 b 645 595 695 585 672 595 l 248 595 l 248 446 l 546 446 l 546 397 l 347 397 b 277 367 320 397 297 387 b 248 298 258 348 248 324 l 248 99 b 277 29 248 72 258 49 b 347 0 297 10 320 0 l 546 0 l 595 50 l 620 0 l 843 0 b 913 29 870 0 893 10 b 942 99 933 49 942 72 l 942 645 b 899 750 942 686 928 721 b 794 794 870 779 835 794 l 198 794 b 93 750 157 794 122 779 b 50 645 64 721 50 686 l 50 -50 b 93 -155 50 -91 64 -126 b 198 -198 122 -184 157 -198 z "},"A":{"ha":595,"x_min":0,"x_max":0,"o":"m 347 397 l 248 397 l 248 645 l 347 645 z m 50 0 l 248 0 l 248 248 l 347 248 l 347 0 l 546 0 l 546 645 b 502 750 546 686 531 721 b 397 794 473 779 438 794 l 198 794 b 93 750 157 794 122 779 b 50 645 64 721 50 686 z "},"B":{"ha":595,"x_min":0,"x_max":0,"o":"m 347 496 l 248 496 l 248 645 l 347 645 z m 347 149 l 248 149 l 248 347 l 347 347 z m 494 484 b 516 501 502 488 509 494 b 546 570 536 520 546 544 l 546 645 b 502 750 546 686 531 721 b 397 794 473 779 438 794 l 50 794 l 50 0 l 397 0 b 502 43 438 0 473 14 b 546 149 531 72 546 107 l 546 397 b 516 467 546 424 536 447 b 494 484 509 473 502 479 z "},"C":{"ha":595,"x_min":0,"x_max":0,"o":"m 50 149 b 93 43 50 107 64 72 b 198 0 122 14 157 0 l 397 0 b 502 43 438 0 473 14 b 546 149 531 72 546 107 l 546 298 l 347 298 l 347 149 l 248 149 l 248 645 l 347 645 l 347 496 l 546 496 l 546 645 b 502 750 546 686 531 721 b 397 794 473 779 438 794 l 198 794 b 93 750 157 794 122 779 b 50 645 64 721 50 686 z "},"D":{"ha":595,"x_min":0,"x_max":0,"o":"m 347 149 l 248 149 l 248 645 l 347 645 z m 50 0 l 397 0 b 502 43 438 0 473 14 b 546 149 531 72 546 107 l 546 645 b 502 750 546 686 531 721 b 397 794 473 779 438 794 l 50 794 z "},"E":{"ha":496,"x_min":0,"x_max":0,"o":"m 50 0 l 496 0 l 496 149 l 248 149 l 248 347 l 446 347 l 446 496 l 248 496 l 248 645 l 496 645 l 496 794 l 50 794 z "},"F":{"ha":496,"x_min":0,"x_max":0,"o":"m 50 0 l 248 0 l 248 298 l 446 298 l 446 446 l 248 446 l 248 645 l 496 645 l 496 794 l 50 794 z "},"G":{"ha":595,"x_min":0,"x_max":0,"o":"m 363 47 b 377 29 367 41 371 35 b 446 0 396 10 420 0 l 546 0 l 546 446 l 298 446 l 298 347 l 347 298 l 347 149 l 248 149 l 248 645 l 347 645 l 347 546 l 546 546 l 546 645 b 502 750 546 686 531 721 b 397 794 473 779 438 794 l 198 794 b 93 750 157 794 122 779 b 50 645 64 721 50 686 l 50 149 b 93 43 50 107 64 72 b 198 0 122 14 157 0 l 313 0 b 348 15 327 0 338 5 b 363 47 357 24 362 34 z "},"H":{"ha":595,"x_min":0,"x_max":0,"o":"m 50 0 l 248 0 l 248 347 l 347 347 l 347 0 l 546 0 l 546 794 l 347 794 l 347 496 l 248 496 l 248 794 l 50 794 z "},"I":{"ha":298,"x_min":0,"x_max":0,"o":"m 50 0 l 248 0 l 248 794 l 50 794 z "},"J":{"ha":298,"x_min":0,"x_max":0,"o":"m -50 -198 l 99 -198 b 205 -155 141 -198 176 -184 b 248 -50 234 -126 248 -91 l 248 794 l 50 794 l 50 -50 l -50 -50 z "},"K":{"ha":595,"x_min":0,"x_max":0,"o":"m 50 0 l 248 0 l 248 347 l 347 347 l 347 0 l 546 0 l 546 397 b 516 467 546 424 536 447 b 446 496 497 486 473 496 l 546 694 l 546 794 l 347 794 l 347 694 l 248 496 l 248 794 l 50 794 z "},"L":{"ha":496,"x_min":0,"x_max":0,"o":"m 50 0 l 446 0 l 446 149 l 248 149 l 248 794 l 50 794 z "},"M":{"ha":794,"x_min":0,"x_max":0,"o":"m 50 0 l 248 0 l 248 347 l 397 50 l 546 347 l 546 0 l 744 0 l 744 794 l 570 794 l 397 446 l 223 794 l 50 794 z "},"N":{"ha":645,"x_min":0,"x_max":0,"o":"m 50 0 l 248 0 l 248 347 l 422 0 l 595 0 l 595 794 l 397 794 l 397 446 l 223 794 l 50 794 z "},"O":{"ha":595,"x_min":0,"x_max":0,"o":"m 347 149 l 248 149 l 248 645 l 347 645 z m 50 149 b 93 43 50 107 64 72 b 198 0 122 14 157 0 l 397 0 b 502 43 438 0 473 14 b 546 149 531 72 546 107 l 546 645 b 502 750 546 686 531 721 b 397 794 473 779 438 794 l 198 794 b 93 750 157 794 122 779 b 50 645 64 721 50 686 z "},"P":{"ha":595,"x_min":0,"x_max":0,"o":"m 347 397 l 248 397 l 248 645 l 347 645 z m 50 0 l 248 0 l 248 248 l 397 248 b 502 291 438 248 473 262 b 546 397 531 320 546 355 l 546 645 b 502 750 546 686 531 721 b 397 794 473 779 438 794 l 50 794 z "},"Q":{"ha":595,"x_min":0,"x_max":0,"o":"m 347 149 l 248 149 l 248 645 l 347 645 z m 248 -99 b 277 -169 248 -126 258 -149 b 347 -198 297 -189 320 -198 l 546 -198 l 546 -50 l 397 -50 l 397 0 l 446 0 b 516 29 473 0 497 10 b 546 99 536 49 546 72 l 546 645 b 502 750 546 686 531 721 b 397 794 473 779 438 794 l 198 794 b 93 750 157 794 122 779 b 50 645 64 721 50 686 l 50 149 b 93 43 50 107 64 72 b 198 0 122 14 157 0 l 248 0 z "},"R":{"ha":595,"x_min":0,"x_max":0,"o":"m 347 446 l 248 446 l 248 645 l 347 645 z m 50 0 l 248 0 l 248 298 l 347 99 l 347 0 l 546 0 l 546 99 l 446 298 b 516 327 473 298 497 307 b 546 397 536 347 546 370 l 546 645 b 502 750 546 686 531 721 b 397 794 473 779 438 794 l 50 794 z "},"S":{"ha":595,"x_min":0,"x_max":0,"o":"m 50 149 b 93 43 50 107 64 72 b 198 0 122 14 157 0 l 397 0 b 502 43 438 0 473 14 b 546 149 531 72 546 107 l 546 372 b 516 442 546 399 536 422 b 446 471 497 461 473 471 l 248 471 l 248 645 l 347 645 l 347 546 l 546 546 l 546 645 b 502 750 546 686 531 721 b 397 794 473 779 438 794 l 198 794 b 93 750 157 794 122 779 b 50 645 64 721 50 686 l 50 422 b 79 352 50 395 59 372 b 149 322 99 332 122 322 l 347 322 l 347 149 l 248 149 l 248 248 l 50 248 z "},"T":{"ha":496,"x_min":0,"x_max":0,"o":"m 149 0 l 347 0 l 347 645 l 471 645 l 471 794 l 25 794 l 25 645 l 149 645 z "},"U":{"ha":595,"x_min":0,"x_max":0,"o":"m 50 149 b 93 43 50 107 64 72 b 198 0 122 14 157 0 l 397 0 b 502 43 438 0 473 14 b 546 149 531 72 546 107 l 546 794 l 347 794 l 347 149 l 248 149 l 248 794 l 50 794 z "},"V":{"ha":595,"x_min":0,"x_max":0,"o":"m 198 0 l 397 0 l 546 645 l 546 794 l 347 794 l 347 645 l 298 248 l 248 645 l 248 794 l 50 794 l 50 645 z "},"W":{"ha":794,"x_min":0,"x_max":0,"o":"m 546 298 l 459 794 l 322 794 l 248 298 l 223 794 l 25 794 l 74 0 l 322 0 l 397 248 l 459 0 l 719 0 l 769 794 l 570 794 z "},"X":{"ha":595,"x_min":0,"x_max":0,"o":"m 50 0 l 248 0 l 248 149 l 298 248 l 347 149 l 347 0 l 546 0 l 546 149 l 422 397 l 546 645 l 546 794 l 347 794 l 347 645 l 298 546 l 248 645 l 248 794 l 50 794 l 50 645 l 174 397 l 50 149 z "},"Y":{"ha":595,"x_min":0,"x_max":0,"o":"m 198 0 l 397 0 l 397 248 l 546 546 l 546 794 l 347 794 l 347 546 l 298 446 l 248 546 l 248 794 l 50 794 l 50 546 l 198 248 z "},"Z":{"ha":546,"x_min":0,"x_max":0,"o":"m 50 0 l 496 0 l 496 149 l 248 149 l 496 645 l 496 794 l 50 794 l 50 645 l 298 645 l 50 149 z "},"[":{"ha":347,"x_min":0,"x_max":0,"o":"m 50 -198 l 298 -198 l 298 -50 l 198 -50 l 198 645 l 298 645 l 298 794 l 50 794 z "},"\\":{"ha":645,"x_min":0,"x_max":0,"o":"m 422 0 l 620 0 l 223 794 l 25 794 z "},"]":{"ha":347,"x_min":0,"x_max":0,"o":"m 50 -198 l 298 -198 l 298 794 l 50 794 l 50 645 l 149 645 l 149 -50 l 50 -50 z "},"^":{"ha":595,"x_min":0,"x_max":0,"o":"m 50 397 l 198 397 l 298 595 l 397 397 l 546 397 l 546 446 l 372 794 l 223 794 l 50 446 z "},"_":{"ha":595,"x_min":0,"x_max":0,"o":"m 0 -198 l 595 -198 l 595 -50 l 0 -50 z "},"`":{"ha":397,"x_min":0,"x_max":0,"o":"m 198 645 l 347 645 l 273 794 l 50 794 z "},"a":{"ha":595,"x_min":0,"x_max":0,"o":"m 347 149 l 248 149 l 248 248 l 347 248 z m 149 0 l 347 0 l 397 50 l 422 0 l 546 0 l 546 496 b 516 566 546 523 536 546 b 446 595 497 585 473 595 l 50 595 l 50 446 l 347 446 l 347 397 l 149 397 b 79 367 122 397 99 387 b 50 298 59 348 50 324 l 50 99 b 79 29 50 72 59 49 b 149 0 99 10 122 0 z "},"b":{"ha":595,"x_min":0,"x_max":0,"o":"m 347 149 l 248 149 l 248 446 l 347 446 z m 50 0 l 446 0 b 516 29 473 0 497 10 b 546 99 536 49 546 72 l 546 496 b 516 566 546 523 536 546 b 446 595 497 585 473 595 l 298 595 l 248 546 l 248 794 l 50 794 z "},"c":{"ha":595,"x_min":0,"x_max":0,"o":"m 149 0 l 446 0 b 516 29 473 0 497 10 b 546 99 536 49 546 72 l 546 248 l 347 248 l 347 149 l 248 149 l 248 446 l 347 446 l 347 347 l 546 347 l 546 496 b 516 566 546 523 536 546 b 446 595 497 585 473 595 l 149 595 b 79 566 122 595 99 585 b 50 496 59 546 50 523 l 50 99 b 79 29 50 72 59 49 b 149 0 99 10 122 0 z "},"d":{"ha":595,"x_min":0,"x_max":0,"o":"m 347 149 l 248 149 l 248 446 l 347 446 z m 149 0 l 298 0 l 347 50 l 347 0 l 546 0 l 546 794 l 347 794 l 347 595 l 149 595 b 79 566 122 595 99 585 b 50 496 59 546 50 523 l 50 99 b 79 29 50 72 59 49 b 149 0 99 10 122 0 z "},"e":{"ha":595,"x_min":0,"x_max":0,"o":"m 347 397 l 248 397 l 248 446 l 347 446 z m 149 0 l 446 0 b 516 29 473 0 497 10 b 546 99 536 49 546 72 l 546 198 l 347 198 l 347 149 l 248 149 l 248 248 l 546 248 l 546 496 b 516 566 546 523 536 546 b 446 595 497 585 473 595 l 149 595 b 79 566 122 595 99 585 b 50 496 59 546 50 523 l 50 99 b 79 29 50 72 59 49 b 149 0 99 10 122 0 z "},"f":{"ha":446,"x_min":0,"x_max":0,"o":"m 99 0 l 298 0 l 298 446 l 397 446 l 397 595 l 298 595 l 298 645 l 397 645 l 397 794 l 198 794 b 129 764 172 794 148 784 b 99 694 109 745 99 721 l 99 595 l 50 595 l 50 446 l 99 446 z "},"g":{"ha":595,"x_min":0,"x_max":0,"o":"m 347 149 l 248 149 l 248 446 l 347 446 z m 50 -198 l 446 -198 b 516 -169 473 -198 497 -189 b 546 -99 536 -149 546 -126 l 546 595 l 422 595 l 397 546 l 347 595 l 149 595 b 79 566 122 595 99 585 b 50 496 59 546 50 523 l 50 99 b 79 29 50 72 59 49 b 149 0 99 10 122 0 l 298 0 l 347 50 l 347 -50 l 50 -50 z "},"h":{"ha":595,"x_min":0,"x_max":0,"o":"m 50 0 l 248 0 l 248 446 l 347 446 l 347 0 l 546 0 l 546 496 b 516 566 546 523 536 546 b 446 595 497 585 473 595 l 298 595 l 248 546 l 248 794 l 50 794 z "},"i":{"ha":298,"x_min":0,"x_max":0,"o":"m 50 0 l 248 0 l 248 595 l 50 595 z m 50 645 l 248 645 l 248 794 l 50 794 z "},"j":{"ha":298,"x_min":0,"x_max":0,"o":"m -50 -198 l 149 -198 b 219 -169 176 -198 199 -189 b 248 -99 238 -149 248 -126 l 248 595 l 50 595 l 50 -50 l -50 -50 z m 50 645 l 248 645 l 248 794 l 50 794 z "},"k":{"ha":595,"x_min":0,"x_max":0,"o":"m 50 0 l 248 0 l 248 248 l 347 248 l 347 0 l 546 0 l 546 298 b 516 367 546 324 536 348 b 446 397 497 387 473 397 l 471 397 l 546 546 l 546 595 l 347 595 l 347 546 l 273 397 l 248 397 l 248 794 l 50 794 z "},"l":{"ha":347,"x_min":0,"x_max":0,"o":"m 149 0 l 298 0 l 298 149 l 248 149 l 248 794 l 50 794 l 50 99 b 79 29 50 72 59 49 b 149 0 99 10 122 0 z "},"m":{"ha":794,"x_min":0,"x_max":0,"o":"m 467 566 b 397 595 447 585 424 595 l 298 595 l 248 546 l 248 595 l 50 595 l 50 0 l 248 0 l 248 446 l 298 446 l 298 0 l 496 0 l 496 446 l 546 446 l 546 0 l 744 0 l 744 496 b 715 566 744 523 734 546 b 645 595 695 585 672 595 l 496 595 z "},"n":{"ha":595,"x_min":0,"x_max":0,"o":"m 50 0 l 248 0 l 248 446 l 347 446 l 347 0 l 546 0 l 546 496 b 516 566 546 523 536 546 b 446 595 497 585 473 595 l 298 595 l 248 546 l 248 595 l 50 595 z "},"o":{"ha":595,"x_min":0,"x_max":0,"o":"m 347 149 l 248 149 l 248 446 l 347 446 z m 149 0 l 446 0 b 516 29 473 0 497 10 b 546 99 536 49 546 72 l 546 496 b 516 566 546 523 536 546 b 446 595 497 585 473 595 l 149 595 b 79 566 122 595 99 585 b 50 496 59 546 50 523 l 50 99 b 79 29 50 72 59 49 b 149 0 99 10 122 0 z "},"p":{"ha":595,"x_min":0,"x_max":0,"o":"m 347 149 l 248 149 l 248 446 l 347 446 z m 50 -198 l 248 -198 l 248 0 l 446 0 b 516 29 473 0 497 10 b 546 99 536 49 546 72 l 546 496 b 516 566 546 523 536 546 b 446 595 497 585 473 595 l 298 595 l 248 546 l 248 595 l 50 595 z "},"q":{"ha":595,"x_min":0,"x_max":0,"o":"m 347 149 l 248 149 l 248 446 l 347 446 z m 347 -198 l 546 -198 l 546 595 l 149 595 b 79 566 122 595 99 585 b 50 496 59 546 50 523 l 50 99 b 79 29 50 72 59 49 b 149 0 99 10 122 0 l 298 0 l 347 50 z "},"r":{"ha":446,"x_min":0,"x_max":0,"o":"m 50 0 l 248 0 l 248 446 l 298 446 l 298 397 l 446 397 l 446 546 b 432 581 446 559 442 571 b 397 595 422 590 410 595 l 298 595 l 248 546 l 248 595 l 50 595 z "},"s":{"ha":595,"x_min":0,"x_max":0,"o":"m 50 0 l 446 0 b 516 29 473 0 497 10 b 546 99 536 49 546 72 l 546 273 b 516 343 546 300 536 323 b 446 372 497 362 473 372 l 248 372 l 248 446 l 546 446 l 546 595 l 149 595 b 79 566 122 595 99 585 b 50 496 59 546 50 523 l 50 322 b 79 253 50 296 59 272 b 149 223 99 233 122 223 l 347 223 l 347 149 l 50 149 z "},"t":{"ha":446,"x_min":0,"x_max":0,"o":"m 198 0 l 397 0 l 397 149 l 298 149 l 298 446 l 397 446 l 397 595 l 298 595 l 298 694 l 99 694 l 99 595 l 50 595 l 50 446 l 99 446 l 99 99 b 129 29 99 72 109 49 b 198 0 148 10 172 0 z "},"u":{"ha":595,"x_min":0,"x_max":0,"o":"m 149 0 l 298 0 l 347 50 l 347 0 l 546 0 l 546 595 l 347 595 l 347 149 l 248 149 l 248 595 l 50 595 l 50 99 b 79 29 50 72 59 49 b 149 0 99 10 122 0 z "},"v":{"ha":595,"x_min":0,"x_max":0,"o":"m 223 0 l 372 0 l 546 347 l 546 595 l 347 595 l 347 347 l 298 248 l 248 347 l 248 595 l 50 595 l 50 347 z "},"w":{"ha":744,"x_min":0,"x_max":0,"o":"m 74 0 l 322 0 l 372 248 l 422 0 l 670 0 l 719 595 l 521 595 l 496 298 l 446 595 l 298 595 l 248 298 l 223 595 l 25 595 z "},"x":{"ha":595,"x_min":0,"x_max":0,"o":"m 50 0 l 248 0 l 248 50 l 298 198 l 347 50 l 347 0 l 546 0 l 546 99 l 446 298 l 546 493 l 546 595 l 347 595 l 347 546 l 298 397 l 248 546 l 248 595 l 50 595 l 50 496 l 149 298 l 50 99 z "},"y":{"ha":595,"x_min":0,"x_max":0,"o":"m 50 -198 l 446 -198 b 516 -169 473 -198 497 -189 b 546 -99 536 -149 546 -126 l 546 595 l 347 595 l 347 149 l 248 149 l 248 595 l 50 595 l 50 99 b 79 29 50 72 59 49 b 149 0 99 10 122 0 l 298 0 l 347 50 l 347 -50 l 50 -50 z "},"z":{"ha":595,"x_min":0,"x_max":0,"o":"m 50 0 l 546 0 l 546 149 l 248 149 l 248 198 l 446 248 l 546 347 l 546 595 l 50 595 l 50 446 l 347 446 l 347 397 l 149 347 l 50 248 z "},"{":{"ha":397,"x_min":0,"x_max":0,"o":"m 198 -198 l 347 -198 l 347 -50 l 248 -50 l 248 248 l 198 298 l 248 347 l 248 645 l 347 645 l 347 794 l 198 794 b 129 764 172 794 148 784 b 99 694 109 745 99 721 l 99 372 l 50 372 l 50 223 l 99 223 l 99 -99 b 129 -169 99 -126 109 -149 b 198 -198 148 -189 172 -198 z "},"|":{"ha":248,"x_min":0,"x_max":0,"o":"m 50 -198 l 198 -198 l 198 794 l 50 794 z "},"}":{"ha":397,"x_min":0,"x_max":0,"o":"m 50 -198 l 198 -198 b 268 -169 225 -198 249 -189 b 298 -99 288 -149 298 -126 l 298 223 l 347 223 l 347 372 l 298 372 l 298 694 b 268 764 298 721 288 745 b 198 794 249 784 225 794 l 50 794 l 50 645 l 149 645 l 149 347 l 198 298 l 149 248 l 149 -50 l 50 -50 z "},"~":{"ha":595,"x_min":0,"x_max":0,"o":"m 50 198 l 198 198 l 198 298 l 347 198 l 446 198 b 516 228 473 198 497 208 b 546 298 536 247 546 271 l 546 446 l 397 446 l 397 347 l 248 446 l 149 446 b 79 417 122 446 99 437 b 50 347 59 397 50 374 z "},"":{"ha":298,"x_min":0,"x_max":0,"o":""}," ":{"ha":298,"x_min":0,"x_max":0,"o":""},"¡":{"ha":298,"x_min":0,"x_max":0,"o":"m 50 -198 l 248 -198 l 248 198 l 211 347 l 87 347 l 50 198 z m 50 446 l 248 446 l 248 595 l 50 595 z "},"¢":{"ha":595,"x_min":0,"x_max":0,"o":"m 248 -99 l 347 -99 l 347 0 l 446 0 b 516 29 473 0 497 10 b 546 99 536 49 546 72 l 546 248 l 347 248 l 347 149 l 248 149 l 248 446 l 347 446 l 347 347 l 546 347 l 546 496 b 516 566 546 523 536 546 b 446 595 497 585 473 595 l 347 595 l 347 694 l 248 694 l 248 595 l 149 595 b 79 566 122 595 99 585 b 50 496 59 546 50 523 l 50 99 b 79 29 50 72 59 49 b 149 0 99 10 122 0 l 248 0 z "},"£":{"ha":645,"x_min":0,"x_max":0,"o":"m 50 0 l 595 0 l 595 149 l 298 149 l 298 298 l 397 298 l 397 446 l 298 446 l 298 645 l 397 645 l 397 496 l 595 496 l 595 645 b 552 750 595 686 581 721 b 446 794 523 779 488 794 l 248 794 b 143 750 207 794 172 779 b 99 645 114 721 99 686 l 99 446 l 50 446 l 50 298 l 99 298 l 99 149 l 50 149 z "},"¤":{"ha":694,"x_min":0,"x_max":0,"o":"m 446 198 l 248 198 l 248 397 l 446 397 z m 149 0 l 198 50 l 496 50 l 546 0 l 645 99 l 595 149 l 595 446 l 645 496 l 546 595 l 496 546 l 198 546 l 149 595 l 50 496 l 99 446 l 99 149 l 50 99 z "},"¥":{"ha":595,"x_min":0,"x_max":0,"o":"m 198 0 l 397 0 l 397 99 l 546 99 l 546 198 l 397 198 l 397 248 l 546 248 l 546 347 l 397 347 l 546 595 l 546 794 l 347 794 l 347 645 l 298 496 l 248 645 l 248 794 l 50 794 l 50 595 l 198 347 l 50 347 l 50 248 l 198 248 l 198 198 l 50 198 l 50 99 l 198 99 z "},"¦":{"ha":298,"x_min":0,"x_max":0,"o":"m 50 -198 l 248 -198 l 248 198 l 50 198 z m 50 397 l 248 397 l 248 794 l 50 794 z "},"§":{"ha":595,"x_min":0,"x_max":0,"o":"m 347 149 l 248 149 l 248 446 l 347 446 z m 149 -198 l 446 -198 b 516 -169 473 -198 497 -189 b 546 -99 536 -149 546 -126 l 546 0 l 496 50 l 546 99 l 546 496 b 516 566 546 523 536 546 b 446 595 497 585 473 595 l 248 595 l 248 645 l 546 645 l 546 694 b 516 764 546 721 536 745 b 446 794 497 784 473 794 l 149 794 b 79 764 122 794 99 784 b 50 694 59 745 50 721 l 50 595 l 99 546 l 50 496 l 50 99 b 79 29 50 72 59 49 b 149 0 99 10 122 0 l 347 0 l 347 -50 l 50 -50 l 50 -99 b 79 -169 50 -126 59 -149 b 149 -198 99 -189 122 -198 z "},"¨":{"ha":496,"x_min":0,"x_max":0,"o":"m 50 645 l 198 645 l 198 794 l 50 794 z m 298 645 l 446 645 l 446 794 l 298 794 z "},"©":{"ha":992,"x_min":0,"x_max":0,"o":"m 347 0 l 645 0 b 715 29 672 0 695 10 b 744 99 734 49 744 72 l 744 248 l 546 248 l 546 149 l 446 149 l 446 446 l 546 446 l 546 347 l 744 347 l 744 496 b 715 566 744 523 734 546 b 645 595 695 585 672 595 l 347 595 b 277 566 320 595 297 585 b 248 496 258 546 248 523 l 248 99 b 277 29 248 72 258 49 b 347 0 297 10 320 0 z m 794 -2 b 779 -36 794 -15 789 -26 b 744 -50 769 -45 757 -50 l 248 -50 b 213 -35 235 -50 223 -45 b 198 0 203 -25 198 -13 l 198 595 b 213 630 198 609 203 620 b 248 645 223 640 235 645 l 744 645 b 779 630 757 645 769 640 b 794 595 789 620 794 609 z m 198 -198 l 843 -198 b 913 -169 870 -198 893 -189 b 942 -99 933 -149 942 -126 l 942 645 b 899 750 942 686 928 721 b 794 794 870 779 835 794 l 198 794 b 93 750 157 794 122 779 b 50 645 64 721 50 686 l 50 -50 b 93 -155 50 -91 64 -126 b 198 -198 122 -184 157 -198 z "},"ª":{"ha":595,"x_min":0,"x_max":0,"o":"m 347 347 l 248 347 l 248 446 l 347 446 z m 149 198 l 347 198 l 397 248 l 422 198 l 546 198 l 546 694 b 516 764 546 721 536 745 b 446 794 497 784 473 794 l 50 794 l 50 645 l 347 645 l 347 595 l 149 595 b 79 566 122 595 99 585 b 50 496 59 546 50 523 l 50 298 b 79 228 50 271 59 247 b 149 198 99 208 122 198 z "},"«":{"ha":645,"x_min":0,"x_max":0,"o":"m 248 50 l 298 50 l 298 198 l 198 298 l 298 397 l 298 546 l 248 546 l 50 347 l 50 248 z m 546 50 l 595 50 l 595 198 l 496 298 l 595 397 l 595 546 l 546 546 l 347 347 l 347 248 z "},"¬":{"ha":595,"x_min":0,"x_max":0,"o":"m 397 149 l 546 149 l 546 446 l 50 446 l 50 298 l 397 298 z "},"­":{"ha":446,"x_min":0,"x_max":0,"o":"m 50 248 l 397 248 l 397 397 l 50 397 z "},"®":{"ha":992,"x_min":0,"x_max":0,"o":"m 546 347 l 446 347 l 446 446 l 546 446 z m 248 0 l 446 0 l 446 198 l 496 198 l 546 99 l 546 0 l 744 0 l 744 99 l 645 248 b 715 277 672 248 695 258 b 744 347 734 297 744 320 l 744 496 b 715 566 744 523 734 546 b 645 595 695 585 672 595 l 248 595 z m 744 -50 l 248 -50 b 213 -35 235 -50 223 -45 b 198 0 203 -25 198 -13 l 198 595 b 213 630 198 609 203 620 b 248 645 223 640 235 645 l 744 645 b 779 630 757 645 769 640 b 794 595 789 620 794 609 l 794 0 b 779 -35 794 -13 789 -25 b 744 -50 769 -45 757 -50 z m 198 -198 l 843 -198 b 913 -169 870 -198 893 -189 b 942 -99 933 -149 942 -126 l 942 645 b 899 750 942 686 928 721 b 794 794 870 779 835 794 l 198 794 b 93 750 157 794 122 779 b 50 645 64 721 50 686 l 50 -50 b 93 -155 50 -91 64 -126 b 198 -198 122 -184 157 -198 z "},"¯":{"ha":694,"x_min":0,"x_max":0,"o":"m 50 645 l 645 645 l 645 794 l 50 794 z "},"°":{"ha":546,"x_min":0,"x_max":0,"o":"m 347 496 l 198 496 l 198 645 l 347 645 z m 149 347 l 397 347 b 467 377 424 347 447 357 b 496 446 486 396 496 420 l 496 694 b 467 764 496 721 486 745 b 397 794 447 784 424 794 l 149 794 b 79 764 122 794 99 784 b 50 694 59 745 50 721 l 50 446 b 79 377 50 420 59 396 b 149 347 99 357 122 347 z "},"±":{"ha":645,"x_min":0,"x_max":0,"o":"m 50 0 l 595 0 l 595 149 l 50 149 z m 248 198 l 397 198 l 397 397 l 595 397 l 595 546 l 397 546 l 397 744 l 248 744 l 248 546 l 50 546 l 50 397 l 248 397 z "},"²":{"ha":595,"x_min":0,"x_max":0,"o":"m 50 198 l 546 198 l 546 347 l 248 347 l 248 397 l 446 397 b 516 426 473 397 497 407 b 546 496 536 446 546 469 l 546 694 b 516 764 546 721 536 745 b 446 794 497 784 473 794 l 149 794 b 79 764 122 794 99 784 b 50 694 59 745 50 721 l 50 595 l 248 595 l 248 645 l 347 645 l 347 546 l 248 546 b 108 488 193 546 146 526 b 50 347 69 449 50 402 z "},"³":{"ha":595,"x_min":0,"x_max":0,"o":"m 149 198 l 446 198 b 516 228 473 198 497 208 b 546 298 536 247 546 271 l 546 496 b 531 531 546 509 541 521 b 496 546 521 541 509 546 b 531 560 509 546 521 551 b 546 595 541 570 546 582 l 546 694 b 516 764 546 721 536 745 b 446 794 497 784 473 794 l 149 794 b 79 764 122 794 99 784 b 50 694 59 745 50 721 l 50 595 l 248 595 l 248 645 l 347 645 l 347 570 l 248 570 l 248 422 l 347 422 l 347 347 l 248 347 l 248 397 l 50 397 l 50 298 b 79 228 50 271 59 247 b 149 198 99 208 122 198 z "},"´":{"ha":397,"x_min":0,"x_max":0,"o":"m 50 645 l 198 645 l 347 794 l 124 794 z "},"µ":{"ha":595,"x_min":0,"x_max":0,"o":"m 50 -198 l 248 -198 l 248 0 l 298 0 l 347 50 l 347 0 l 546 0 l 546 595 l 347 595 l 347 149 l 248 149 l 248 595 l 50 595 z "},"¶":{"ha":694,"x_min":0,"x_max":0,"o":"m 298 0 l 446 0 l 446 794 l 198 794 b 93 750 157 794 122 779 b 50 645 64 721 50 686 l 50 446 b 93 341 50 405 64 370 b 198 298 122 312 157 298 l 298 298 z m 496 0 l 645 0 l 645 794 l 496 794 z "},"·":{"ha":248,"x_min":0,"x_max":0,"o":"m 50 223 l 198 223 l 198 372 l 50 372 z "},"¸":{"ha":347,"x_min":0,"x_max":0,"o":"m 50 -198 l 198 -198 b 268 -169 225 -198 249 -189 b 298 -99 288 -149 298 -126 l 298 50 l 149 50 l 149 -50 l 50 -50 z "},"¹":{"ha":496,"x_min":0,"x_max":0,"o":"m 50 198 l 446 198 l 446 347 l 347 347 l 347 794 l 149 794 l 50 694 l 50 595 l 149 595 l 149 347 l 50 347 z "},"º":{"ha":595,"x_min":0,"x_max":0,"o":"m 347 347 l 248 347 l 248 645 l 347 645 z m 149 198 l 446 198 b 516 228 473 198 497 208 b 546 298 536 247 546 271 l 546 694 b 516 764 546 721 536 745 b 446 794 497 784 473 794 l 149 794 b 79 764 122 794 99 784 b 50 694 59 745 50 721 l 50 298 b 79 228 50 271 59 247 b 149 198 99 208 122 198 z "},"»":{"ha":645,"x_min":0,"x_max":0,"o":"m 50 50 l 99 50 l 298 248 l 298 347 l 99 546 l 50 546 l 50 397 l 149 298 l 50 198 z m 347 50 l 397 50 l 595 248 l 595 347 l 397 546 l 347 546 l 347 397 l 446 298 l 347 198 z "},"¼":{"ha":1240,"x_min":0,"x_max":0,"o":"m 942 0 l 868 0 l 942 149 z m 942 -198 l 1141 -198 l 1141 -149 l 1190 -149 l 1190 0 l 1141 0 l 1141 397 l 893 397 l 694 0 l 694 -149 l 942 -149 z m 347 -99 l 546 -99 l 942 694 l 744 694 z m 50 198 l 446 198 l 446 347 l 347 347 l 347 794 l 149 794 l 50 694 l 50 595 l 149 595 l 149 347 l 50 347 z "},"½":{"ha":1339,"x_min":0,"x_max":0,"o":"m 794 -198 l 1290 -198 l 1290 -50 l 992 -50 l 992 0 l 1190 0 b 1260 29 1217 0 1241 10 b 1290 99 1280 49 1290 72 l 1290 298 b 1260 367 1290 324 1280 348 b 1190 397 1241 387 1217 397 l 893 397 b 823 367 866 397 843 387 b 794 298 803 348 794 324 l 794 198 l 992 198 l 992 248 l 1091 248 l 1091 149 l 992 149 b 852 91 937 149 891 129 b 794 -50 813 52 794 5 z m 347 -99 l 546 -99 l 942 694 l 744 694 z m 50 198 l 446 198 l 446 347 l 347 347 l 347 794 l 149 794 l 50 694 l 50 595 l 149 595 l 149 347 l 50 347 z "},"¾":{"ha":1290,"x_min":0,"x_max":0,"o":"m 149 198 l 446 198 b 516 228 473 198 497 208 b 546 298 536 247 546 271 l 546 496 b 531 531 546 509 541 521 b 496 546 521 541 509 546 b 531 560 509 546 521 551 b 546 595 541 570 546 582 l 546 694 b 516 764 546 721 536 745 b 446 794 497 784 473 794 l 149 794 b 79 764 122 794 99 784 b 50 694 59 745 50 721 l 50 595 l 248 595 l 248 645 l 347 645 l 347 570 l 248 570 l 248 422 l 347 422 l 347 347 l 248 347 l 248 397 l 50 397 l 50 298 b 79 228 50 271 59 247 b 149 198 99 208 122 198 z m 397 -99 l 595 -99 l 992 694 l 794 694 z m 992 -198 l 1190 -198 l 1190 -149 l 1240 -149 l 1240 0 l 1190 0 l 1190 397 l 942 397 l 744 0 l 744 -149 l 992 -149 z m 992 0 l 918 0 l 992 149 z "},"¿":{"ha":595,"x_min":0,"x_max":0,"o":"m 198 -198 l 397 -198 b 502 -155 438 -198 473 -184 b 546 -50 531 -126 546 -91 l 546 50 l 347 50 l 347 -50 l 248 -50 l 248 50 l 397 347 l 397 397 l 198 397 l 198 347 l 50 50 l 50 -50 b 93 -155 50 -91 64 -126 b 198 -198 122 -184 157 -198 z m 198 446 l 397 446 l 397 595 l 198 595 z "},"À":{"ha":595,"x_min":0,"x_max":0,"o":"m 223 843 l 372 843 l 298 992 l 74 992 z m 347 397 l 248 397 l 248 645 l 347 645 z m 50 0 l 248 0 l 248 248 l 347 248 l 347 0 l 546 0 l 546 645 b 502 750 546 686 531 721 b 397 794 473 779 438 794 l 198 794 b 93 750 157 794 122 779 b 50 645 64 721 50 686 z "},"Á":{"ha":595,"x_min":0,"x_max":0,"o":"m 198 843 l 347 843 l 496 992 l 273 992 z m 347 397 l 248 397 l 248 645 l 347 645 z m 50 0 l 248 0 l 248 248 l 347 248 l 347 0 l 546 0 l 546 645 b 502 750 546 686 531 721 b 397 794 473 779 438 794 l 198 794 b 93 750 157 794 122 779 b 50 645 64 721 50 686 z "},"Â":{"ha":595,"x_min":0,"x_max":0,"o":"m 99 843 l 248 843 l 298 893 l 347 843 l 496 843 l 372 992 l 223 992 z m 347 397 l 248 397 l 248 645 l 347 645 z m 50 0 l 248 0 l 248 248 l 347 248 l 347 0 l 546 0 l 546 645 b 502 750 546 686 531 721 b 397 794 473 779 438 794 l 198 794 b 93 750 157 794 122 779 b 50 645 64 721 50 686 z "},"Ã":{"ha":595,"x_min":0,"x_max":0,"o":"m 99 843 l 248 843 l 248 893 l 322 843 l 446 843 b 481 858 460 843 471 848 b 496 893 491 868 496 879 l 496 992 l 347 992 l 347 942 l 273 992 l 149 992 b 114 977 135 992 124 987 b 99 942 104 968 99 956 z m 347 397 l 248 397 l 248 645 l 347 645 z m 50 0 l 248 0 l 248 248 l 347 248 l 347 0 l 546 0 l 546 645 b 502 750 546 686 531 721 b 397 794 473 779 438 794 l 198 794 b 93 750 157 794 122 779 b 50 645 64 721 50 686 z "},"Ä":{"ha":595,"x_min":0,"x_max":0,"o":"m 99 843 l 248 843 l 248 992 l 99 992 z m 347 843 l 496 843 l 496 992 l 347 992 z m 347 397 l 248 397 l 248 645 l 347 645 z m 50 0 l 248 0 l 248 248 l 347 248 l 347 0 l 546 0 l 546 645 b 502 750 546 686 531 721 b 397 794 473 779 438 794 l 198 794 b 93 750 157 794 122 779 b 50 645 64 721 50 686 z "},"Å":{"ha":595,"x_min":0,"x_max":0,"o":"m 50 0 l 248 0 l 248 248 l 347 248 l 347 0 l 546 0 l 546 645 b 502 750 546 686 531 721 b 446 786 486 767 467 779 l 446 942 b 432 977 446 956 442 968 b 397 992 422 987 410 992 l 198 992 b 164 977 185 992 173 987 b 149 942 154 968 149 956 l 149 786 b 93 750 128 779 110 767 b 50 645 64 721 50 686 z m 347 397 l 248 397 l 248 645 l 347 645 z m 248 794 l 248 893 l 347 893 l 347 794 z "},"Æ":{"ha":843,"x_min":0,"x_max":0,"o":"m 347 397 l 248 397 l 248 645 l 347 645 z m 50 0 l 248 0 l 248 248 l 347 248 l 347 0 l 794 0 l 794 149 l 546 149 l 546 347 l 744 347 l 744 496 l 546 496 l 546 645 l 794 645 l 794 794 l 198 794 b 93 750 157 794 122 779 b 50 645 64 721 50 686 z "},"Ç":{"ha":595,"x_min":0,"x_max":0,"o":"m 124 -198 l 273 -198 b 343 -168 300 -198 323 -188 b 372 -99 362 -149 372 -126 l 372 0 l 397 0 b 502 43 438 0 473 14 b 546 149 531 72 546 107 l 546 298 l 347 298 l 347 149 l 248 149 l 248 645 l 347 645 l 347 496 l 546 496 l 546 645 b 502 750 546 686 531 721 b 397 794 473 779 438 794 l 198 794 b 93 750 157 794 122 779 b 50 645 64 721 50 686 l 50 149 b 93 43 50 107 64 72 b 198 0 122 14 157 0 l 223 0 l 223 -49 l 124 -49 z "},"È":{"ha":496,"x_min":0,"x_max":0,"o":"m 198 843 l 347 843 l 273 992 l 50 992 z m 50 0 l 496 0 l 496 149 l 248 149 l 248 347 l 446 347 l 446 496 l 248 496 l 248 645 l 496 645 l 496 794 l 50 794 z "},"É":{"ha":496,"x_min":0,"x_max":0,"o":"m 149 843 l 298 843 l 446 992 l 223 992 z m 50 0 l 496 0 l 496 149 l 248 149 l 248 347 l 446 347 l 446 496 l 248 496 l 248 645 l 496 645 l 496 794 l 50 794 z "},"Ê":{"ha":496,"x_min":0,"x_max":0,"o":"m 74 843 l 223 843 l 273 893 l 322 843 l 471 843 l 347 992 l 198 992 z m 50 0 l 496 0 l 496 149 l 248 149 l 248 347 l 446 347 l 446 496 l 248 496 l 248 645 l 496 645 l 496 794 l 50 794 z "},"Ë":{"ha":496,"x_min":0,"x_max":0,"o":"m 74 843 l 223 843 l 223 992 l 74 992 z m 322 843 l 471 843 l 471 992 l 322 992 z m 50 0 l 496 0 l 496 149 l 248 149 l 248 347 l 446 347 l 446 496 l 248 496 l 248 645 l 496 645 l 496 794 l 50 794 z "},"Ì":{"ha":298,"x_min":0,"x_max":0,"o":"m 74 843 l 223 843 l 149 992 l -74 992 z m 50 0 l 248 0 l 248 794 l 50 794 z "},"Í":{"ha":298,"x_min":0,"x_max":0,"o":"m 74 843 l 223 843 l 372 992 l 149 992 z m 50 0 l 248 0 l 248 794 l 50 794 z "},"Î":{"ha":298,"x_min":0,"x_max":0,"o":"m -50 843 l 99 843 l 149 893 l 198 843 l 347 843 l 223 992 l 74 992 z m 50 0 l 248 0 l 248 794 l 50 794 z "},"Ï":{"ha":298,"x_min":0,"x_max":0,"o":"m -50 843 l 99 843 l 99 992 l -50 992 z m 198 843 l 347 843 l 347 992 l 198 992 z m 50 0 l 248 0 l 248 794 l 50 794 z "},"Ð":{"ha":595,"x_min":0,"x_max":0,"o":"m 0 347 l 50 347 l 50 0 l 397 0 b 502 43 438 0 473 14 b 546 149 531 72 546 107 l 546 645 b 502 750 546 686 531 721 b 397 794 473 779 438 794 l 50 794 l 50 496 l 0 496 z m 347 149 l 248 149 l 248 347 l 298 347 l 298 496 l 248 496 l 248 645 l 347 645 z "},"Ñ":{"ha":645,"x_min":0,"x_max":0,"o":"m 124 843 l 273 843 l 273 893 l 347 843 l 471 843 b 506 858 485 843 496 848 b 521 893 516 868 521 879 l 521 992 l 372 992 l 372 942 l 298 992 l 174 992 b 139 977 160 992 149 987 b 124 942 129 968 124 956 z m 50 0 l 248 0 l 248 347 l 422 0 l 595 0 l 595 794 l 397 794 l 397 446 l 223 794 l 50 794 z "},"Ò":{"ha":595,"x_min":0,"x_max":0,"o":"m 250 843 l 398 843 l 324 992 l 101 992 z m 347 149 l 248 149 l 248 645 l 347 645 z m 50 149 b 93 43 50 107 64 72 b 198 0 122 14 157 0 l 397 0 b 502 43 438 0 473 14 b 546 149 531 72 546 107 l 546 645 b 502 750 546 686 531 721 b 397 794 473 779 438 794 l 198 794 b 93 750 157 794 122 779 b 50 645 64 721 50 686 z "},"Ó":{"ha":595,"x_min":0,"x_max":0,"o":"m 198 843 l 347 843 l 496 992 l 273 992 z m 347 149 l 248 149 l 248 645 l 347 645 z m 50 149 b 93 43 50 107 64 72 b 198 0 122 14 157 0 l 397 0 b 502 43 438 0 473 14 b 546 149 531 72 546 107 l 546 645 b 502 750 546 686 531 721 b 397 794 473 779 438 794 l 198 794 b 93 750 157 794 122 779 b 50 645 64 721 50 686 z "},"Ô":{"ha":595,"x_min":0,"x_max":0,"o":"m 99 843 l 248 843 l 298 893 l 347 843 l 496 843 l 372 992 l 223 992 z m 347 149 l 248 149 l 248 645 l 347 645 z m 50 149 b 93 43 50 107 64 72 b 198 0 122 14 157 0 l 397 0 b 502 43 438 0 473 14 b 546 149 531 72 546 107 l 546 645 b 502 750 546 686 531 721 b 397 794 473 779 438 794 l 198 794 b 93 750 157 794 122 779 b 50 645 64 721 50 686 z "},"Õ":{"ha":595,"x_min":0,"x_max":0,"o":"m 99 843 l 248 843 l 248 893 l 322 843 l 446 843 b 481 858 460 843 471 848 b 496 893 491 868 496 879 l 496 992 l 347 992 l 347 942 l 273 992 l 149 992 b 114 977 135 992 124 987 b 99 942 104 968 99 956 z m 347 149 l 248 149 l 248 645 l 347 645 z m 50 149 b 93 43 50 107 64 72 b 198 0 122 14 157 0 l 397 0 b 502 43 438 0 473 14 b 546 149 531 72 546 107 l 546 645 b 502 750 546 686 531 721 b 397 794 473 779 438 794 l 198 794 b 93 750 157 794 122 779 b 50 645 64 721 50 686 z "},"Ö":{"ha":595,"x_min":0,"x_max":0,"o":"m 99 843 l 248 843 l 248 992 l 99 992 z m 347 843 l 496 843 l 496 992 l 347 992 z m 347 149 l 248 149 l 248 645 l 347 645 z m 50 149 b 93 43 50 107 64 72 b 198 0 122 14 157 0 l 397 0 b 502 43 438 0 473 14 b 546 149 531 72 546 107 l 546 645 b 502 750 546 686 531 721 b 397 794 473 779 438 794 l 198 794 b 93 750 157 794 122 779 b 50 645 64 721 50 686 z "},"×":{"ha":595,"x_min":0,"x_max":0,"o":"m 149 50 l 298 198 l 446 50 l 546 149 l 397 298 l 546 446 l 446 546 l 298 397 l 149 546 l 50 446 l 198 298 l 50 149 z "},"Ø":{"ha":595,"x_min":0,"x_max":0,"o":"m 50 149 b 79 59 50 115 59 85 l 50 0 l 149 0 l 149 8 b 198 0 164 3 181 0 l 397 0 b 502 43 438 0 473 14 b 546 149 531 72 546 107 l 546 645 b 516 735 546 679 536 709 l 546 794 l 446 794 l 446 786 b 397 794 431 791 414 794 l 198 794 b 93 750 157 794 122 779 b 50 645 64 721 50 686 z m 248 397 l 248 645 l 347 645 l 347 595 z m 347 149 l 248 149 l 248 198 l 347 397 z "},"Ù":{"ha":595,"x_min":0,"x_max":0,"o":"m 223 843 l 372 843 l 298 992 l 74 992 z m 50 149 b 93 43 50 107 64 72 b 198 0 122 14 157 0 l 397 0 b 502 43 438 0 473 14 b 546 149 531 72 546 107 l 546 794 l 347 794 l 347 149 l 248 149 l 248 794 l 50 794 z "},"Ú":{"ha":595,"x_min":0,"x_max":0,"o":"m 198 843 l 347 843 l 496 992 l 273 992 z m 50 149 b 93 43 50 107 64 72 b 198 0 122 14 157 0 l 397 0 b 502 43 438 0 473 14 b 546 149 531 72 546 107 l 546 794 l 347 794 l 347 149 l 248 149 l 248 794 l 50 794 z "},"Û":{"ha":595,"x_min":0,"x_max":0,"o":"m 99 843 l 248 843 l 298 893 l 347 843 l 496 843 l 372 992 l 223 992 z m 50 149 b 93 43 50 107 64 72 b 198 0 122 14 157 0 l 397 0 b 502 43 438 0 473 14 b 546 149 531 72 546 107 l 546 794 l 347 794 l 347 149 l 248 149 l 248 794 l 50 794 z "},"Ü":{"ha":595,"x_min":0,"x_max":0,"o":"m 99 843 l 248 843 l 248 992 l 99 992 z m 347 843 l 496 843 l 496 992 l 347 992 z m 50 149 b 93 43 50 107 64 72 b 198 0 122 14 157 0 l 397 0 b 502 43 438 0 473 14 b 546 149 531 72 546 107 l 546 794 l 347 794 l 347 149 l 248 149 l 248 794 l 50 794 z "},"Ý":{"ha":595,"x_min":0,"x_max":0,"o":"m 198 843 l 347 843 l 496 992 l 273 992 z m 198 0 l 397 0 l 397 248 l 546 546 l 546 794 l 347 794 l 347 546 l 298 446 l 248 546 l 248 794 l 50 794 l 50 546 l 198 248 z "},"Þ":{"ha":595,"x_min":0,"x_max":0,"o":"m 347 298 l 248 298 l 248 496 l 347 496 z m 50 0 l 248 0 l 248 149 l 397 149 b 502 192 438 149 473 163 b 546 298 531 221 546 256 l 546 496 b 502 601 546 537 531 573 b 397 645 473 630 438 645 l 248 645 l 248 794 l 50 794 z "},"ß":{"ha":595,"x_min":0,"x_max":0,"o":"m 347 149 l 248 149 l 248 645 l 347 645 l 347 496 l 298 496 l 298 347 l 347 347 z m 50 0 l 248 0 l 248 50 l 298 0 l 446 0 b 516 29 473 0 497 10 b 546 99 536 49 546 72 l 546 397 b 516 467 546 424 536 447 b 511 471 515 468 513 470 b 516 476 513 473 515 474 b 546 546 536 496 546 519 l 546 645 b 502 750 546 686 531 721 b 397 794 473 779 438 794 l 198 794 b 93 750 157 794 122 779 b 50 645 64 721 50 686 z "},"à":{"ha":595,"x_min":0,"x_max":0,"o":"m 248 645 l 397 645 l 322 794 l 99 794 z m 347 149 l 248 149 l 248 248 l 347 248 z m 149 0 l 347 0 l 397 50 l 422 0 l 546 0 l 546 496 b 516 566 546 523 536 546 b 446 595 497 585 473 595 l 50 595 l 50 446 l 347 446 l 347 397 l 149 397 b 79 367 122 397 99 387 b 50 298 59 348 50 324 l 50 99 b 79 29 50 72 59 49 b 149 0 99 10 122 0 z "},"á":{"ha":595,"x_min":0,"x_max":0,"o":"m 149 645 l 298 645 l 446 794 l 223 794 z m 347 149 l 248 149 l 248 248 l 347 248 z m 149 0 l 347 0 l 397 50 l 422 0 l 546 0 l 546 496 b 516 566 546 523 536 546 b 446 595 497 585 473 595 l 50 595 l 50 446 l 347 446 l 347 397 l 149 397 b 79 367 122 397 99 387 b 50 298 59 348 50 324 l 50 99 b 79 29 50 72 59 49 b 149 0 99 10 122 0 z "},"â":{"ha":595,"x_min":0,"x_max":0,"o":"m 99 645 l 248 645 l 298 694 l 347 645 l 496 645 l 372 794 l 223 794 z m 347 149 l 248 149 l 248 248 l 347 248 z m 149 0 l 347 0 l 397 50 l 422 0 l 546 0 l 546 496 b 516 566 546 523 536 546 b 446 595 497 585 473 595 l 50 595 l 50 446 l 347 446 l 347 397 l 149 397 b 79 367 122 397 99 387 b 50 298 59 348 50 324 l 50 99 b 79 29 50 72 59 49 b 149 0 99 10 122 0 z "},"ã":{"ha":595,"x_min":0,"x_max":0,"o":"m 99 645 l 248 645 l 248 694 l 322 645 l 446 645 b 481 660 460 645 471 650 b 496 694 491 669 496 681 l 496 794 l 347 794 l 347 744 l 273 794 l 149 794 b 114 779 135 794 124 789 b 99 744 104 769 99 757 z m 347 149 l 248 149 l 248 248 l 347 248 z m 149 0 l 347 0 l 397 50 l 422 0 l 546 0 l 546 496 b 516 566 546 523 536 546 b 446 595 497 585 473 595 l 50 595 l 50 446 l 347 446 l 347 397 l 149 397 b 79 367 122 397 99 387 b 50 298 59 348 50 324 l 50 99 b 79 29 50 72 59 49 b 149 0 99 10 122 0 z "},"ä":{"ha":595,"x_min":0,"x_max":0,"o":"m 99 645 l 248 645 l 248 794 l 99 794 z m 347 645 l 496 645 l 496 794 l 347 794 z m 347 149 l 248 149 l 248 248 l 347 248 z m 149 0 l 347 0 l 397 50 l 422 0 l 546 0 l 546 496 b 516 566 546 523 536 546 b 446 595 497 585 473 595 l 50 595 l 50 446 l 347 446 l 347 397 l 149 397 b 79 367 122 397 99 387 b 50 298 59 348 50 324 l 50 99 b 79 29 50 72 59 49 b 149 0 99 10 122 0 z "},"å":{"ha":595,"x_min":0,"x_max":0,"o":"m 347 744 l 248 744 l 248 843 l 347 843 z m 198 645 l 397 645 b 432 660 410 645 422 650 b 446 694 442 669 446 681 l 446 893 b 432 928 446 906 442 918 b 397 942 422 938 410 942 l 198 942 b 164 928 185 942 173 938 b 149 893 154 918 149 906 l 149 694 b 164 660 149 681 154 669 b 198 645 173 650 185 645 z m 347 149 l 248 149 l 248 248 l 347 248 z m 149 0 l 347 0 l 397 50 l 422 0 l 546 0 l 546 496 b 516 566 546 523 536 546 b 446 595 497 585 473 595 l 50 595 l 50 446 l 347 446 l 347 397 l 149 397 b 79 367 122 397 99 387 b 50 298 59 348 50 324 l 50 99 b 79 29 50 72 59 49 b 149 0 99 10 122 0 z "},"æ":{"ha":893,"x_min":0,"x_max":0,"o":"m 347 149 l 248 149 l 248 248 l 347 248 z m 645 397 l 546 397 l 546 446 l 645 446 z m 149 0 l 397 0 l 446 50 l 496 0 l 744 0 b 814 29 771 0 794 10 b 843 99 833 49 843 72 l 843 198 l 645 198 l 645 149 l 546 149 l 546 248 l 843 248 l 843 496 b 814 566 843 523 833 546 b 744 595 794 585 771 595 l 496 595 l 446 546 l 397 595 l 50 595 l 50 446 l 347 446 l 347 397 l 149 397 b 79 367 122 397 99 387 b 50 298 59 348 50 324 l 50 99 b 79 29 50 72 59 49 b 149 0 99 10 122 0 z "},"ç":{"ha":595,"x_min":0,"x_max":0,"o":"m 149 -198 l 298 -198 b 367 -168 324 -198 348 -188 b 397 -99 387 -149 397 -126 l 397 0 l 446 0 b 516 29 473 0 497 10 b 546 99 536 49 546 72 l 546 248 l 347 248 l 347 149 l 248 149 l 248 446 l 347 446 l 347 347 l 546 347 l 546 496 b 516 566 546 523 536 546 b 446 595 497 585 473 595 l 149 595 b 79 566 122 595 99 585 b 50 496 59 546 50 523 l 50 99 b 79 29 50 72 59 49 b 149 0 99 10 122 0 l 248 0 l 248 -49 l 149 -49 z "},"è":{"ha":595,"x_min":0,"x_max":0,"o":"m 248 645 l 397 645 l 322 794 l 99 794 z m 347 397 l 248 397 l 248 446 l 347 446 z m 149 0 l 446 0 b 516 29 473 0 497 10 b 546 99 536 49 546 72 l 546 198 l 347 198 l 347 149 l 248 149 l 248 248 l 546 248 l 546 496 b 516 566 546 523 536 546 b 446 595 497 585 473 595 l 149 595 b 79 566 122 595 99 585 b 50 496 59 546 50 523 l 50 99 b 79 29 50 72 59 49 b 149 0 99 10 122 0 z "},"é":{"ha":595,"x_min":0,"x_max":0,"o":"m 198 645 l 347 645 l 496 794 l 273 794 z m 347 397 l 248 397 l 248 446 l 347 446 z m 149 0 l 446 0 b 516 29 473 0 497 10 b 546 99 536 49 546 72 l 546 198 l 347 198 l 347 149 l 248 149 l 248 248 l 546 248 l 546 496 b 516 566 546 523 536 546 b 446 595 497 585 473 595 l 149 595 b 79 566 122 595 99 585 b 50 496 59 546 50 523 l 50 99 b 79 29 50 72 59 49 b 149 0 99 10 122 0 z "},"ê":{"ha":595,"x_min":0,"x_max":0,"o":"m 99 645 l 248 645 l 298 694 l 347 645 l 496 645 l 372 794 l 223 794 z m 347 397 l 248 397 l 248 446 l 347 446 z m 149 0 l 446 0 b 516 29 473 0 497 10 b 546 99 536 49 546 72 l 546 198 l 347 198 l 347 149 l 248 149 l 248 248 l 546 248 l 546 496 b 516 566 546 523 536 546 b 446 595 497 585 473 595 l 149 595 b 79 566 122 595 99 585 b 50 496 59 546 50 523 l 50 99 b 79 29 50 72 59 49 b 149 0 99 10 122 0 z "},"ë":{"ha":595,"x_min":0,"x_max":0,"o":"m 99 645 l 248 645 l 248 794 l 99 794 z m 347 645 l 496 645 l 496 794 l 347 794 z m 347 397 l 248 397 l 248 446 l 347 446 z m 149 0 l 446 0 b 516 29 473 0 497 10 b 546 99 536 49 546 72 l 546 198 l 347 198 l 347 149 l 248 149 l 248 248 l 546 248 l 546 496 b 516 566 546 523 536 546 b 446 595 497 585 473 595 l 149 595 b 79 566 122 595 99 585 b 50 496 59 546 50 523 l 50 99 b 79 29 50 72 59 49 b 149 0 99 10 122 0 z "},"ì":{"ha":298,"x_min":0,"x_max":0,"o":"m 99 645 l 248 645 l 174 794 l -50 794 z m 50 0 l 248 0 l 248 595 l 50 595 z "},"í":{"ha":298,"x_min":0,"x_max":0,"o":"m 50 645 l 198 645 l 347 794 l 124 794 z m 50 0 l 248 0 l 248 595 l 50 595 z "},"î":{"ha":298,"x_min":0,"x_max":0,"o":"m -50 645 l 99 645 l 149 694 l 198 645 l 347 645 l 223 794 l 74 794 z m 50 0 l 248 0 l 248 595 l 50 595 z "},"ï":{"ha":298,"x_min":0,"x_max":0,"o":"m -50 645 l 99 645 l 99 794 l -50 794 z m 198 645 l 347 645 l 347 794 l 198 794 z m 50 0 l 248 0 l 248 595 l 50 595 z "},"ð":{"ha":595,"x_min":0,"x_max":0,"o":"m 347 149 l 248 149 l 248 446 l 347 446 z m 149 0 l 446 0 b 516 29 473 0 497 10 b 546 99 536 49 546 72 l 546 546 l 446 645 l 546 645 l 546 744 l 397 744 l 347 794 l 198 794 l 198 744 l 99 744 l 99 645 l 248 645 l 298 595 l 149 595 b 79 566 122 595 99 585 b 50 496 59 546 50 523 l 50 99 b 79 29 50 72 59 49 b 149 0 99 10 122 0 z "},"ñ":{"ha":595,"x_min":0,"x_max":0,"o":"m 99 645 l 248 645 l 248 694 l 322 645 l 446 645 b 481 660 460 645 471 650 b 496 694 491 669 496 681 l 496 794 l 347 794 l 347 744 l 273 794 l 149 794 b 114 779 135 794 124 789 b 99 744 104 769 99 757 z m 50 0 l 248 0 l 248 446 l 347 446 l 347 0 l 546 0 l 546 496 b 516 566 546 523 536 546 b 446 595 497 585 473 595 l 298 595 l 248 546 l 248 595 l 50 595 z "},"ò":{"ha":595,"x_min":0,"x_max":0,"o":"m 248 645 l 397 645 l 322 794 l 99 794 z m 347 149 l 248 149 l 248 446 l 347 446 z m 149 0 l 446 0 b 516 29 473 0 497 10 b 546 99 536 49 546 72 l 546 496 b 516 566 546 523 536 546 b 446 595 497 585 473 595 l 149 595 b 79 566 122 595 99 585 b 50 496 59 546 50 523 l 50 99 b 79 29 50 72 59 49 b 149 0 99 10 122 0 z "},"ó":{"ha":595,"x_min":0,"x_max":0,"o":"m 198 645 l 347 645 l 496 794 l 273 794 z m 347 149 l 248 149 l 248 446 l 347 446 z m 149 0 l 446 0 b 516 29 473 0 497 10 b 546 99 536 49 546 72 l 546 496 b 516 566 546 523 536 546 b 446 595 497 585 473 595 l 149 595 b 79 566 122 595 99 585 b 50 496 59 546 50 523 l 50 99 b 79 29 50 72 59 49 b 149 0 99 10 122 0 z "},"ô":{"ha":595,"x_min":0,"x_max":0,"o":"m 99 645 l 248 645 l 298 694 l 347 645 l 496 645 l 372 794 l 223 794 z m 347 149 l 248 149 l 248 446 l 347 446 z m 149 0 l 446 0 b 516 29 473 0 497 10 b 546 99 536 49 546 72 l 546 496 b 516 566 546 523 536 546 b 446 595 497 585 473 595 l 149 595 b 79 566 122 595 99 585 b 50 496 59 546 50 523 l 50 99 b 79 29 50 72 59 49 b 149 0 99 10 122 0 z "},"õ":{"ha":595,"x_min":0,"x_max":0,"o":"m 99 645 l 248 645 l 248 694 l 322 645 l 446 645 b 481 660 460 645 471 650 b 496 694 491 669 496 681 l 496 794 l 347 794 l 347 744 l 273 794 l 149 794 b 114 779 135 794 124 789 b 99 744 104 769 99 757 z m 347 149 l 248 149 l 248 446 l 347 446 z m 149 0 l 446 0 b 516 29 473 0 497 10 b 546 99 536 49 546 72 l 546 496 b 516 566 546 523 536 546 b 446 595 497 585 473 595 l 149 595 b 79 566 122 595 99 585 b 50 496 59 546 50 523 l 50 99 b 79 29 50 72 59 49 b 149 0 99 10 122 0 z "},"ö":{"ha":595,"x_min":0,"x_max":0,"o":"m 99 645 l 248 645 l 248 794 l 99 794 z m 347 645 l 496 645 l 496 794 l 347 794 z m 347 149 l 248 149 l 248 446 l 347 446 z m 149 0 l 446 0 b 516 29 473 0 497 10 b 546 99 536 49 546 72 l 546 496 b 516 566 546 523 536 546 b 446 595 497 585 473 595 l 149 595 b 79 566 122 595 99 585 b 50 496 59 546 50 523 l 50 99 b 79 29 50 72 59 49 b 149 0 99 10 122 0 z "},"÷":{"ha":595,"x_min":0,"x_max":0,"o":"m 198 50 l 397 50 l 397 198 l 198 198 z m 50 248 l 546 248 l 546 397 l 50 397 z m 198 446 l 397 446 l 397 595 l 198 595 z "},"ø":{"ha":595,"x_min":0,"x_max":0,"o":"m 546 595 l 496 595 l 475 574 b 397 595 452 588 426 595 l 149 595 b 79 566 122 595 99 585 b 50 496 59 546 50 523 l 50 149 b 71 71 50 120 57 94 l 50 50 l 50 0 l 99 0 l 121 21 b 198 0 143 7 169 0 l 446 0 b 516 29 473 0 497 10 b 546 99 536 49 546 72 l 546 446 b 524 524 546 475 539 501 l 546 546 z m 347 149 l 248 149 l 248 198 l 347 298 z m 248 298 l 248 446 l 347 446 l 347 397 z "},"ù":{"ha":595,"x_min":0,"x_max":0,"o":"m 248 645 l 397 645 l 322 794 l 99 794 z m 149 0 l 298 0 l 347 50 l 347 0 l 546 0 l 546 595 l 347 595 l 347 149 l 248 149 l 248 595 l 50 595 l 50 99 b 79 29 50 72 59 49 b 149 0 99 10 122 0 z "},"ú":{"ha":595,"x_min":0,"x_max":0,"o":"m 198 645 l 347 645 l 496 794 l 273 794 z m 149 0 l 298 0 l 347 50 l 347 0 l 546 0 l 546 595 l 347 595 l 347 149 l 248 149 l 248 595 l 50 595 l 50 99 b 79 29 50 72 59 49 b 149 0 99 10 122 0 z "},"û":{"ha":595,"x_min":0,"x_max":0,"o":"m 99 645 l 248 645 l 298 694 l 347 645 l 496 645 l 372 794 l 223 794 z m 149 0 l 298 0 l 347 50 l 347 0 l 546 0 l 546 595 l 347 595 l 347 149 l 248 149 l 248 595 l 50 595 l 50 99 b 79 29 50 72 59 49 b 149 0 99 10 122 0 z "},"ü":{"ha":595,"x_min":0,"x_max":0,"o":"m 99 645 l 248 645 l 248 794 l 99 794 z m 347 645 l 496 645 l 496 794 l 347 794 z m 149 0 l 298 0 l 347 50 l 347 0 l 546 0 l 546 595 l 347 595 l 347 149 l 248 149 l 248 595 l 50 595 l 50 99 b 79 29 50 72 59 49 b 149 0 99 10 122 0 z "},"ý":{"ha":595,"x_min":0,"x_max":0,"o":"m 223 645 l 372 645 l 521 794 l 298 794 z m 50 -198 l 446 -198 b 516 -169 473 -198 497 -189 b 546 -99 536 -149 546 -126 l 546 595 l 347 595 l 347 149 l 248 149 l 248 595 l 50 595 l 50 99 b 79 29 50 72 59 49 b 149 0 99 10 122 0 l 298 0 l 347 50 l 347 -50 l 50 -50 z "},"þ":{"ha":595,"x_min":0,"x_max":0,"o":"m 347 149 l 248 149 l 248 446 l 347 446 z m 50 -198 l 248 -198 l 248 0 l 446 0 b 516 29 473 0 497 10 b 546 99 536 49 546 72 l 546 496 b 516 566 546 523 536 546 b 446 595 497 585 473 595 l 298 595 l 248 546 l 248 794 l 50 794 z "},"ÿ":{"ha":595,"x_min":0,"x_max":0,"o":"m 99 645 l 248 645 l 248 794 l 99 794 z m 347 645 l 496 645 l 496 794 l 347 794 z m 50 -198 l 446 -198 b 516 -169 473 -198 497 -189 b 546 -99 536 -149 546 -126 l 546 595 l 347 595 l 347 149 l 248 149 l 248 595 l 50 595 l 50 99 b 79 29 50 72 59 49 b 149 0 99 10 122 0 l 298 0 l 347 50 l 347 -50 l 50 -50 z "},"ı":{"ha":298,"x_min":0,"x_max":0,"o":"m 50 0 l 248 0 l 248 595 l 50 595 z "},"̀":{"ha":0,"x_min":0,"x_max":0,"o":"m -298 843 l -149 843 l -223 992 l -446 992 z "},"́":{"ha":0,"x_min":0,"x_max":0,"o":"m -397 843 l -248 843 l -99 992 l -322 992 z "},"̂":{"ha":0,"x_min":0,"x_max":0,"o":"m -446 843 l -298 843 l -248 893 l -198 843 l -50 843 l -174 992 l -322 992 z "},"̃":{"ha":0,"x_min":0,"x_max":0,"o":"m -446 843 l -298 843 l -298 893 l -223 843 l -99 843 b -64 858 -86 843 -74 848 b -50 893 -55 868 -50 879 l -50 992 l -198 992 l -198 942 l -273 992 l -397 992 b -432 977 -410 992 -422 987 b -446 942 -442 968 -446 956 z "},"—":{"ha":992,"x_min":0,"x_max":0,"o":"m 50 248 l 942 248 l 942 397 l 50 397 z "},"‘":{"ha":298,"x_min":0,"x_max":0,"o":"m 50 446 l 248 446 l 248 645 l 198 645 l 248 744 l 248 794 l 149 794 l 50 694 z "},"’":{"ha":298,"x_min":0,"x_max":0,"o":"m 50 446 l 149 446 l 248 546 l 248 794 l 50 794 l 50 595 l 99 595 l 50 496 z "},"“":{"ha":546,"x_min":0,"x_max":0,"o":"m 50 446 l 248 446 l 248 645 l 198 645 l 248 744 l 248 794 l 149 794 l 50 694 z m 298 446 l 496 446 l 496 645 l 446 645 l 496 744 l 496 794 l 397 794 l 298 694 z "},"”":{"ha":546,"x_min":0,"x_max":0,"o":"m 50 446 l 149 446 l 248 546 l 248 794 l 50 794 l 50 595 l 99 595 l 50 496 z m 298 446 l 397 446 l 496 546 l 496 794 l 298 794 l 298 595 l 347 595 l 298 496 z "},"•":{"ha":298,"x_min":0,"x_max":0,"o":"m 50 198 l 248 198 l 248 397 l 50 397 z "},"…":{"ha":794,"x_min":0,"x_max":0,"o":"m 50 0 l 248 0 l 248 198 l 50 198 z m 298 0 l 496 0 l 496 198 l 298 198 z m 546 0 l 744 0 l 744 198 l 546 198 z "},"‹":{"ha":347,"x_min":0,"x_max":0,"o":"m 248 50 l 298 50 l 298 198 l 198 298 l 298 397 l 298 546 l 248 546 l 50 347 l 50 248 z "},"›":{"ha":347,"x_min":0,"x_max":0,"o":"m 50 50 l 99 50 l 298 248 l 298 347 l 99 546 l 50 546 l 50 397 l 149 298 l 50 198 z "},"€":{"ha":694,"x_min":0,"x_max":0,"o":"m 248 0 l 496 0 b 601 43 537 0 573 14 b 645 149 630 72 645 107 l 645 298 l 446 298 l 446 149 l 298 149 l 298 298 l 397 298 l 397 397 l 298 397 l 298 446 l 397 446 l 397 546 l 298 546 l 298 645 l 446 645 l 446 496 l 645 496 l 645 645 b 601 750 645 686 630 721 b 496 794 573 779 537 794 l 248 794 b 143 750 207 794 172 779 b 99 645 114 721 99 686 l 99 546 l 50 546 l 50 446 l 99 446 l 99 397 l 50 397 l 50 298 l 99 298 l 99 149 b 143 43 99 107 114 72 b 248 0 172 14 207 0 z "},"™":{"ha":744,"x_min":0,"x_max":0,"o":"m 124 446 l 223 446 l 223 694 l 298 694 l 298 794 l 50 794 l 50 694 l 124 694 z m 347 446 l 446 446 l 446 595 l 521 446 l 595 595 l 595 446 l 694 446 l 694 794 l 595 794 l 521 645 l 446 794 l 347 794 z "},"ﬀ":{"ha":794,"x_min":0,"x_max":0,"o":"m 99 0 l 298 0 l 298 446 l 446 446 l 446 0 l 645 0 l 645 446 l 744 446 l 744 595 l 645 595 l 645 645 l 744 645 l 744 794 l 546 794 b 476 764 519 794 496 784 b 446 694 456 745 446 721 l 446 595 l 298 595 l 298 645 l 397 645 l 397 794 l 198 794 b 129 764 172 794 148 784 b 99 694 109 745 99 721 l 99 595 l 50 595 l 50 446 l 99 446 z "},"ﬁ":{"ha":645,"x_min":0,"x_max":0,"o":"m 99 0 l 298 0 l 298 446 l 397 446 l 397 0 l 595 0 l 595 595 l 298 595 l 298 645 l 595 645 l 595 794 l 198 794 b 129 764 172 794 148 784 b 99 694 109 745 99 721 l 99 595 l 50 595 l 50 446 l 99 446 z "},"ﬂ":{"ha":694,"x_min":0,"x_max":0,"o":"m 99 0 l 298 0 l 298 446 l 397 446 l 397 595 l 298 595 l 298 645 l 446 645 l 446 0 l 645 0 l 645 794 l 198 794 b 129 764 172 794 148 784 b 99 694 109 745 99 721 l 99 595 l 50 595 l 50 446 l 99 446 z "},"ﬃ":{"ha":992,"x_min":0,"x_max":0,"o":"m 99 0 l 298 0 l 298 446 l 446 446 l 446 0 l 645 0 l 645 446 l 744 446 l 744 0 l 942 0 l 942 595 l 645 595 l 645 645 l 942 645 l 942 794 l 546 794 b 476 764 519 794 496 784 b 446 694 456 745 446 721 l 446 595 l 298 595 l 298 645 l 397 645 l 397 794 l 198 794 b 129 764 172 794 148 784 b 99 694 109 745 99 721 l 99 595 l 50 595 l 50 446 l 99 446 z "},"ﬄ":{"ha":1042,"x_min":0,"x_max":0,"o":"m 99 0 l 298 0 l 298 446 l 446 446 l 446 0 l 645 0 l 645 446 l 744 446 l 744 595 l 645 595 l 645 645 l 794 645 l 794 0 l 992 0 l 992 794 l 546 794 b 476 764 519 794 496 784 b 446 694 456 745 446 721 l 446 595 l 298 595 l 298 645 l 397 645 l 397 794 l 198 794 b 129 764 172 794 148 784 b 99 694 109 745 99 721 l 99 595 l 50 595 l 50 446 l 99 446 z "},"ﬆ":{"ha":893,"x_min":0,"x_max":0,"o":"m 50 0 l 397 0 b 467 29 424 0 447 10 b 496 99 486 49 496 72 l 496 273 b 467 343 496 300 486 323 b 397 372 447 362 424 372 l 248 372 l 248 446 l 546 446 l 546 99 b 575 29 546 72 555 49 b 645 0 595 10 618 0 l 843 0 l 843 149 l 744 149 l 744 446 l 843 446 l 843 595 l 744 595 l 744 694 l 546 694 l 546 595 l 149 595 b 79 566 122 595 99 585 b 50 496 59 546 50 523 l 50 322 b 79 253 50 296 59 272 b 149 223 99 233 122 223 l 298 223 l 298 149 l 50 149 z "}}}
